<?xml version="1.0" encoding="utf-8"?>
<!-- Generator: Adobe Illustrator 25.0.1, SVG Export Plug-In . SVG Version: 6.00 Build 0)  -->
<svg version="1.1" id="Ebene_1" xmlns="http://www.w3.org/2000/svg" xmlns:xlink="http://www.w3.org/1999/xlink" x="0px" y="0px"
	 viewBox="0 0 193.55 88.3" style="enable-background:new 0 0 193.55 88.3;" xml:space="preserve">
<style type="text/css">
	.st0{fill:#FF9921;}
	.st1{fill:#005791;}
</style>
<g>
	<path class="st0" d="M142.72,88.3l2.47-5.19h15.88l-2.65,5.19H142.72z"/>
	<path class="st1" d="M16.6,8.3c0,4.68-3.62,8.3-8.3,8.3S0,12.98,0,8.3C0,3.62,3.62,0,8.3,0S16.6,3.62,16.6,8.3z M15.59,60.42H1.1
		V20.1h14.49V60.42z M61.77,34.18v26.24H47.28V38.74c0-4.03-1.91-6.19-5.09-6.19c-2.89,0-5.05,1.91-5.05,6.27v21.61H22.66V20.1
		h13.79v4.15c2.28-3.5,5.86-5.25,10.9-5.25C55.7,19,61.77,24.9,61.77,34.18z M96.79,19.41l-0.81,14.48
		c-1.67-0.45-4.03-0.94-6.35-0.94c-4.03,0-6.47,1.42-6.47,5.86v21.61H68.64V20.1h13.83v4.07c2.24-3.58,5.78-5.17,10.7-5.17
		C94.76,19,96.23,19.29,96.79,19.41z M142,60.42h-13.92v-3.54c-2.4,2.68-5.9,4.6-10.99,4.6c-10.78,0-18.35-9.56-18.35-21.28
		c0-11.64,7.57-21.2,18.39-21.2c5.05,0,8.54,1.95,10.95,4.72V20.1H142V60.42z M113.68,40.24c0,4.52,3.01,7.77,7.16,7.77
		c4.15,0,7.16-3.26,7.16-7.77c0-4.52-3.01-7.77-7.16-7.77C116.69,32.47,113.68,35.73,113.68,40.24z M164.62,76.7h-15.83l13.59-25.39
		l-16.6-31.21h16.72l15.21,30.98L164.62,76.7z M193.55,20.1h-15.87l7.71,15.97L193.55,20.1z"/>
</g>
</svg>
